# xmcd
#
# Track frame offsets: 
#        150
#        3997
#        30624
#        45619
#        62646
#        81962
#        107597
#        121075
#        144385
#        165782
#        187777
#        214502
#        228616
#        253435
#
# Disc length: 3731 seconds
#
# Revision: 1
# Processed by: cddbd v1.5.2PL0 Copyright (c) Steve Scherf et al.
# Submitted via: ExactAudioCopy v1.1
#
DISCID=ad0e910e
DTITLE=Alfredo Naranjo y El Guajeo - Alfredo Naranjo y El Guajeo
DYEAR=2006
DGENRE=Salsa
TTITLE0=Introduccion
TTITLE1=Mi socio
TTITLE2=Guajeo y su rumbata
TTITLE3=Mueve
TTITLE4=Los caballos
TTITLE5=Ella
TTITLE6=Linda
TTITLE7=Cómprame mi disco
TTITLE8=Master Tito
TTITLE9=Caramelo
TTITLE10=Baila
TTITLE11=Guajeando
TTITLE12=Dile que venga
TTITLE13=Payaso
EXTD=YEAR: 2006
EXTT0=
EXTT1=
EXTT2=
EXTT3=
EXTT4=
EXTT5=
EXTT6=
EXTT7=
EXTT8=
EXTT9=
EXTT10=
EXTT11=
EXTT12=
EXTT13=
PLAYORDER=
